# xmcd
#
# Track frame offsets: 
#        150
#        10842
#        29619
#        51756
#        80448
#        92576
#        115853
#        135591
#        166161
#        180885
#        193685
#        211498
#        235810
#        263231
#        291531
#        308999
#        324701
#
# Disc length: 4514 seconds
#
# Revision: 0
# Processed by: cddbd v1.5.2PL0 Copyright (c) Steve Scherf et al.
# Submitted via: ExactAudioCopy v0.95a5
#
DISCID=eb11a011
DTITLE=Various Artist - Ghetto Funk 3
DYEAR=1970
DGENRE=Funk
TTITLE0=Would You Believe In Me - Jon Lucien
TTITLE1=Strange Games And Things - Love Unlimited Orchestra
TTITLE2=Lucky Fellow - Leroy Huston
TTITLE3=Gimme The Sunshine - Leo's Sunship
TTITLE4=Mighty Mighty - Baby Huey
TTITLE5=Safari - The Ashantis
TTITLE6=Get Off Your Seats And Dance - Tommy Stewart
TTITLE7=Seven Minutes Of Funk 12'' Mix - Whole Darn Family
TTITLE8=Maranatha - The Latin Breed
TTITLE9=Lovely Weekend - Ron And Candy
TTITLE10=Na Na Hey - Soul Messengers
TTITLE11=Get Down - Curtis Mayfield
TTITLE12=Child Of The Streets - Sam Dees
TTITLE13=Do You Have The Time - The Notations
TTITLE14=Move Me No Mountain - Love Unlimited Orchestra
TTITLE15=Soon We'll All Be Gone - Ronnie Mc Neir
TTITLE16=Time - Ju Par Orchestra
EXTD=
EXTT0=
EXTT1=
EXTT2=
EXTT3=
EXTT4=
EXTT5=
EXTT6=
EXTT7=
EXTT8=
EXTT9=
EXTT10=
EXTT11=
EXTT12=
EXTT13=
EXTT14=
EXTT15=
EXTT16=
PLAYORDER=
